<svg id="Capa_1" enable-background="new 0 0 511.977 511.977" height="512" viewBox="0 0 511.977 511.977" width="512" xmlns="http://www.w3.org/2000/svg"><g><path d="m395.496 306.272c-5.871-5.872-9.546-13.651-10.348-21.905-.029-.296.187 1.523-2.946-24.524 48.595-11.812 84.787-55.688 84.787-107.865 0-69.269-63.125-121.968-131.585-109.079-44.748-52.439-122.006-57.727-172.708-10.754-22.154 20.523-35.978 48.29-38.939 78.203-21.879 181.891-20.899 173.734-20.928 174.019-.802 8.254-4.477 16.033-10.347 21.904l-28.19 28.189c-12.448 12.447-19.304 28.999-19.304 46.606 0 36.343 29.567 65.91 65.91 65.91h55.504c6.867 36.278 38.669 65 77.586 65 38.893 0 70.715-28.704 77.586-65h55.503c36.343 0 65.91-29.567 65.91-65.91 0-17.607-6.855-34.159-19.304-46.606zm41.492-154.295c0 44.663-36.336 81-81 81s-81-36.337-81-81 36.336-81 81-81 81 36.337 81 81zm-193 330c-21.899 0-40.485-14.736-46.744-35h93.488c-6.258 20.264-24.845 35-46.744 35zm133.09-65h-266.18c-19.801 0-35.91-16.109-35.91-35.91 0-9.594 3.735-18.612 10.517-25.394l28.191-28.189c10.733-10.735 17.467-24.947 18.975-40.038 21.774-181.022 20.899-173.728 20.927-174.012 4.566-46.799 44.271-83.457 90.391-83.457 22.166 0 43.649 8.667 60.287 23.808-35.225 18.627-59.287 55.649-59.287 98.192 0 59.99 47.837 109.009 107.366 110.934l2.952 24.536c1.508 15.09 8.242 29.303 18.976 40.037l28.19 28.189c6.782 6.781 10.517 15.8 10.517 25.394-.002 19.801-16.111 35.91-35.912 35.91z"/><g><g><path d="m363.988 206.977c-8.284 0-15-6.716-15-15v-65h-14.101c-8.284 0-15-6.716-15-15s6.716-15 15-15h29.101c8.284 0 15 6.716 15 15v80c0 8.284-6.715 15-15 15z"/></g></g></g></svg>