<svg id="Layer_1" data-name="Layer 1" xmlns="http://www.w3.org/2000/svg" viewBox="0 0 380.92 85.04"><defs><style>.cls-1{fill:red;}.cls-2{fill:#fff;}.cls-3{fill:#282828;}</style></defs><title>yt_logo_rgb_light</title><path class="cls-1" d="M203.5,98.32a15.23,15.23,0,0,0-10.74-10.74C183.28,85,145.29,85,145.29,85s-38,0-47.46,2.54A15.21,15.21,0,0,0,87.09,98.32c-2.54,9.47-2.54,29.24-2.54,29.24s0,19.77,2.54,29.24a15.21,15.21,0,0,0,10.74,10.74c9.47,2.54,47.46,2.54,47.46,2.54s38,0,47.47-2.54A15.23,15.23,0,0,0,203.5,156.8c2.53-9.47,2.53-29.24,2.53-29.24S206,107.79,203.5,98.32Z" transform="translate(-84.55 -85.04)"/><polygon class="cls-2" points="48.59 60.74 80.16 42.52 48.59 24.3 48.59 60.74"/><path class="cls-3" d="M260.89,162.4a13.19,13.19,0,0,1-5.13-7.56,49.55,49.55,0,0,1-1.52-13.63v-7.74A44.75,44.75,0,0,1,256,119.66a13.74,13.74,0,0,1,5.43-7.6,17.59,17.59,0,0,1,9.68-2.39q5.91,0,9.47,2.43a14,14,0,0,1,5.22,7.6,47,47,0,0,1,1.65,13.77v7.74a47.48,47.48,0,0,1-1.61,13.68,13.45,13.45,0,0,1-5.21,7.56q-3.62,2.38-9.78,2.39Q264.49,164.84,260.89,162.4Zm13.46-8.34q1-2.59,1-8.51V129c0-3.83-.33-6.62-1-8.39a3.59,3.59,0,0,0-3.52-2.65,3.54,3.54,0,0,0-3.43,2.65c-.67,1.77-1,4.56-1,8.39v16.59q0,5.91,1,8.51a3.48,3.48,0,0,0,3.47,2.61A3.57,3.57,0,0,0,274.35,154.06Z" transform="translate(-84.55 -85.04)"/><path class="cls-3" d="M445.41,141.33V144a71.88,71.88,0,0,0,.3,7.68,7.27,7.27,0,0,0,1.26,3.74,3.59,3.59,0,0,0,2.95,1.17,3.72,3.72,0,0,0,3.7-2.08q1-2.08,1.08-6.95l10.34.61a15.67,15.67,0,0,1,.09,1.91q0,7.38-4,11c-2.7,2.43-6.5,3.65-11.43,3.65-5.9,0-10.05-1.85-12.42-5.56s-3.56-9.44-3.56-17.2v-9.3q0-12,3.69-17.5T450,109.71q6.17,0,9.47,2.26a12.11,12.11,0,0,1,4.65,7,50.85,50.85,0,0,1,1.34,13.21v9.12Zm1.52-22.41a7.26,7.26,0,0,0-1.22,3.69,73.27,73.27,0,0,0-.3,7.78v3.82h8.77v-3.82a64.93,64.93,0,0,0-.35-7.78,7.44,7.44,0,0,0-1.26-3.74,3.49,3.49,0,0,0-2.82-1.08A3.4,3.4,0,0,0,446.93,118.92Z" transform="translate(-84.55 -85.04)"/><path class="cls-3" d="M231.69,140.33,218.05,91.08H230l4.78,22.32q1.83,8.26,2.69,14.08h.35q.61-4.17,2.7-14l4.95-22.41h11.9l-13.81,49.25V164H231.69Z" transform="translate(-84.55 -85.04)"/><path class="cls-3" d="M326.14,110.71V164h-9.39l-1-6.52h-.26q-3.82,7.38-11.47,7.39-5.3,0-7.82-3.48t-2.52-10.86V110.71h12v39.1a12,12,0,0,0,.78,5.08,2.72,2.72,0,0,0,2.61,1.52,5.33,5.33,0,0,0,3-1,5.93,5.93,0,0,0,2.13-2.43V110.71Z" transform="translate(-84.55 -85.04)"/><path class="cls-3" d="M387.63,110.71V164h-9.38l-1-6.52H377q-3.82,7.38-11.47,7.39c-3.54,0-6.14-1.16-7.82-3.48s-2.52-5.94-2.52-10.86V110.71h12v39.1a12,12,0,0,0,.78,5.08,2.71,2.71,0,0,0,2.61,1.52,5.28,5.28,0,0,0,3-1,5.79,5.79,0,0,0,2.13-2.43V110.71Z" transform="translate(-84.55 -85.04)"/><path class="cls-3" d="M358.71,100.72h-11.9V164H335.08V100.72h-11.9V91.08h35.53Z" transform="translate(-84.55 -85.04)"/><path class="cls-3" d="M427.31,119.22c-.72-3.35-1.9-5.79-3.52-7.29a9.43,9.43,0,0,0-6.69-2.26,11.08,11.08,0,0,0-6.17,1.87,12.75,12.75,0,0,0-4.43,4.9h-.08V88.38H394.86V164h9.91l1.21-5h.26a10.22,10.22,0,0,0,4.17,4.25,12.31,12.31,0,0,0,6.17,1.57,9.44,9.44,0,0,0,8.95-5.61q2.87-5.59,2.87-17.5v-8.43A70.23,70.23,0,0,0,427.31,119.22Zm-11,21.73a67,67,0,0,1-.48,9.12,9.92,9.92,0,0,1-1.6,4.69,3.72,3.72,0,0,1-3,1.39,5.6,5.6,0,0,1-2.74-.69,5.27,5.27,0,0,1-2-2.09V123.14a7.51,7.51,0,0,1,2.08-3.56,4.62,4.62,0,0,1,3.22-1.39,3.23,3.23,0,0,1,2.82,1.43,11,11,0,0,1,1.39,4.82,90.13,90.13,0,0,1,.39,9.64Z" transform="translate(-84.55 -85.04)"/></svg>